PathFileType	4	(X/Y/Z)	C:\Users\Basilio\Documents\Thesis Gigler\squatting_fais\c3dfiles\058\SLS_back_pre4\markers_experimental.trc
DataRate	CameraRate	NumFrames	NumMarkers	Units	OrigDataRate	OrigDataStartFrame	OrigNumFrames
200.000000	200.000000	4	61	mm	200.000000	1119	1279
Frame#	Time	FHD			LBHD			RBHD			C7			T10			CLAV			LSHO			LUUPA			LMUPA			LDUPA			LLEP			LMEP			LRAD			LUL			LRFIN			RSHO			RUPA1			RMUPA			RDUPA			RLEP			RMEP			RRAD			RUL			RUFIN			LASI			RASI			USACR			LSACR			RSACR			LTHI1			LTHI2			LTHI3			LTHI4			LLFC			LMFC			LTIB1			LTIB2			LTIB3			LTIB4			LLMAL			LMMAL			LHEE			LMT1			LMT2			LMT5			RTHI			RTHI2			RTHI3			RTHI4			RLFC			RMFC			RTIB1			RTIB2			RTIB3			RTIB4			RLMAL			RMMAL			RHEE			RMT1			RMT2			RMT5			
		X1	Y1	Z1	X2	Y2	Z2	X3	Y3	Z3	X4	Y4	Z4	X5	Y5	Z5	X6	Y6	Z6	X7	Y7	Z7	X8	Y8	Z8	X9	Y9	Z9	X10	Y10	Z10	X11	Y11	Z11	X12	Y12	Z12	X13	Y13	Z13	X14	Y14	Z14	X15	Y15	Z15	X16	Y16	Z16	X17	Y17	Z17	X18	Y18	Z18	X19	Y19	Z19	X20	Y20	Z20	X21	Y21	Z21	X22	Y22	Z22	X23	Y23	Z23	X24	Y24	Z24	X25	Y25	Z25	X26	Y26	Z26	X27	Y27	Z27	X28	Y28	Z28	X29	Y29	Z29	X30	Y30	Z30	X31	Y31	Z31	X32	Y32	Z32	X33	Y33	Z33	X34	Y34	Z34	X35	Y35	Z35	X36	Y36	Z36	X37	Y37	Z37	X38	Y38	Z38	X39	Y39	Z39	X40	Y40	Z40	X41	Y41	Z41	X42	Y42	Z42	X43	Y43	Z43	X44	Y44	Z44	X45	Y45	Z45	X46	Y46	Z46	X47	Y47	Z47	X48	Y48	Z48	X49	Y49	Z49	X50	Y50	Z50	X51	Y51	Z51	X52	Y52	Z52	X53	Y53	Z53	X54	Y54	Z54	X55	Y55	Z55	X56	Y56	Z56	X57	Y57	Z57	X58	Y58	Z58	X59	Y59	Z59	X60	Y60	Z60	X61	Y61	Z61	

1120	5.595	-233.970932006836	1805.334594726563	-620.0095214843751	-388.1821289062501	1759.495971679688	-702.8104248046876	-214.9328002929688	1814.291015625	-762.9772338867189	-399.9002075195314	1596.329833984375	-716.0698852539064	-411.7229614257814	1292.797241210938	-713.9949951171876	-244.2086639404297	1549.856567382813	-698.1020507812501	-256.0090942382813	1602.6552734375	-850.269958496094	-98.63548278808597	1542.939086914063	-955.822204589844	-75.66355895996095	1580.212768554688	-929.5610961914065	-29.61838150024415	1545.379028320313	-945.3001708984377	44.9234733581543	1551.380249023438	-926.6719360351565	50.04948043823244	1495.648681640625	-892.653503417969	307.2466430664063	1572.367309570313	-817.8076782226565	311.4857788085938	1594.677856445313	-896.512878417969	409.1107788085939	1597.044067382813	-816.5130004882815	-273.0042419433594	1604.166870117188	-548.6343383789064	-113.1394195556641	1519.890869140625	-444.8737182617189	-90.56159973144533	1557.984375	-469.2376403808595	-43.51725387573243	1529.160522460938	-447.4973754882814	22.80504226684571	1521.827270507813	-458.2081298828126	29.64839363098145	1463.366943359375	-509.0303039550782	nan	nan	nan	290.7768249511719	1560.801025390625	-458.0546264648439	384.7472229003907	1578.504150390625	-522.5376586914064	-244.7304992675782	1088.7373046875	-854.8217773437502	-240.7745666503907	1072.052612304688	-612.7444458007814	-428.9277343750001	1177.498291015625	-715.3040161132814	-438.4857482910157	1148.142822265625	-745.2576293945314	-433.7976989746095	1143.064453125	-687.6397094726564	-273.1452941894532	816.9753417968752	-948.887390136719	-235.071029663086	740.0762939453126	-952.0302734375002	-190.1065368652344	742.2715454101564	-930.762878417969	-258.9414367675782	685.1866455078126	-950.5488281250002	-272.8476562500001	602.6109008789064	-941.511413574219	-243.8801269531251	574.5072631835939	-815.448669433594	-359.7228088378907	500.779754638672	-904.749694824219	-415.3682556152345	551.1142578125001	-940.409362792969	-408.3620605468751	508.8928222656251	-930.677429199219	-480.6121826171876	478.4614257812501	-897.4752197265627	-679.9899902343751	494.6717834472657	-866.680603027344	-648.1599731445314	440.7758178710939	-797.5651855468752	-673.2478637695314	538.6469726562501	-793.3806152343752	-757.3092041015626	331.7822875976563	-817.0318603515627	-769.3830566406252	340.9401245117188	-862.291442871094	-791.2873535156252	403.1107177734376	-891.0379638671877	-362.3563537597657	869.7520751953127	-562.1857299804689	-329.3341064453126	812.667419433594	-561.9951171875001	-296.2488098144532	810.490905761719	-561.5348510742189	-358.7631530761719	737.2759399414064	-585.6445312500001	-358.3169555664063	555.0545654296876	-614.9385375976564	-320.3191223144532	551.5858154296876	-748.2741088867189	-304.6307678222657	357.2107849121094	-713.7238159179689	-345.1587219238282	273.9224853515626	-657.3372192382814	-307.5008239746094	270.4434204101563	-687.7575683593751	-316.2998352050782	228.9197387695313	-726.3072509765626	-376.0653076171876	116.8567199707032	-697.6424560546876	-343.1080932617188	144.7928771972657	-782.289489746094	-439.2900390625001	101.9244079589844	-764.0043334960939	-228.8748779296876	60.35636520385744	-774.8728637695315	-224.4742889404297	58.04716110229494	-722.5559082031251	-273.2303771972657	26.28837203979493	-671.9087524414064	
1121	5.600000000000001	-234.2659606933594	1805.236450195313	-619.8975219726564	-388.5638427734376	1759.44091796875	-702.7243652343751	-215.0975494384766	1814.280395507813	-762.9825439453126	-400.0466918945314	1596.350341796875	-716.0953979492189	-411.8941650390626	1292.723022460938	-714.0098266601564	-244.4824676513672	1549.757934570313	-698.0742797851564	-256.0878906250001	1602.705444335938	-850.232849121094	-98.74344635009768	1542.957885742188	-955.8291625976565	-75.76456451416017	1580.2158203125	-929.5660400390627	-29.66190338134766	1545.419555664063	-945.2648925781252	44.85771179199219	1551.407836914063	-926.7087402343752	50.03827285766603	1495.689819335938	-892.6821289062502	307.1487731933594	1572.44580078125	-817.7603759765627	311.4006652832032	1594.71826171875	-896.546081542969	409.0260620117189	1597.256713867188	-816.4947509765627	-273.1614990234376	1604.165649414063	-548.6423339843751	-113.2216339111328	1519.9228515625	-444.8941650390626	-90.96023559570314	1557.942504882813	-469.2446899414064	-43.7578468322754	1529.073852539063	-447.375213623047	22.74067878723145	1521.927734375	-458.2572021484376	29.21903800964356	1463.289794921875	-509.3629455566407	nan	nan	nan	290.6297912597657	1560.964477539063	-458.0762023925782	384.6067810058595	1578.963012695313	-522.4316406250001	-244.7804412841797	1088.697509765625	-854.8670654296877	-240.7871856689454	1072.063842773438	-612.8115844726564	-429.0420532226564	1177.453369140625	-715.3568725585939	-438.5281372070314	1148.167602539063	-745.3538208007814	-433.8672485351564	1143.013305664063	-687.6475219726564	-273.0106506347657	816.939880371094	-948.8352050781252	-235.0405731201172	740.0521850585939	-951.9172363281252	-190.0402221679688	742.2355957031251	-930.6743164062502	-258.8923950195313	685.1877441406251	-950.458679199219	-272.7831420898438	602.5966796875001	-941.4580688476565	-243.8191528320313	574.5581665039064	-815.230651855469	-359.5785827636719	500.8584594726564	-904.7398071289065	-415.2046508789064	551.1346435546876	-940.4053344726565	-408.2690734863282	508.8488159179689	-930.5869750976565	-480.4859008789064	478.4444274902345	-897.526794433594	-679.8338623046876	494.6228637695314	-866.805358886719	-647.9938964843751	440.7595520019532	-797.6463623046877	-673.1613159179689	538.7730712890626	-793.5129394531252	-757.2391967773439	331.7774353027344	-817.0530395507815	-769.2192993164065	340.8414306640626	-862.4678955078127	-791.1441040039065	403.0631713867189	-891.1081542968752	-362.3001403808594	869.719177246094	-562.2697753906251	-329.1900329589844	812.667175292969	-562.1415405273439	-296.1741333007813	810.4937744140627	-561.6488647460939	-358.6790771484376	737.2719116210939	-585.6909179687501	-358.0537109375001	555.0087890625001	-615.0299682617189	-320.4294738769532	551.5770874023439	-748.4412841796876	-304.5347900390626	357.1824340820313	-713.9860229492189	-344.9942626953126	274.0112609863282	-657.5151977539064	-307.4279785156251	270.3988037109376	-687.9326782226564	-316.3309326171876	228.8753509521485	-726.5387573242189	-375.9569396972657	116.8368759155274	-697.8062744140626	-343.1498718261719	144.7946319580078	-782.5134887695315	-439.2626342773439	101.9728088378907	-764.0772705078126	-228.8471832275391	60.25832748413087	-774.9230957031252	-224.5041656494141	58.02499389648439	-722.5884399414064	-273.2334289550782	26.41014099121094	-671.9188842773439	
1122	5.605	-234.3104858398438	1805.358642578125	-620.0549926757814	-388.6809997558595	1759.3955078125	-702.6818847656251	-215.2736206054688	1814.310913085938	-762.9921264648439	-400.251190185547	1596.269775390625	-716.0905761718751	-411.9718627929689	1292.765014648438	-714.0604248046876	-244.6237030029297	1549.70263671875	-698.0930175781251	-256.1327819824219	1602.700439453125	-850.2602539062502	-98.78733062744143	1542.994384765625	-955.8435058593752	-75.74051666259767	1580.26416015625	-929.598571777344	-29.737211227417	1545.386596679688	-945.3194580078127	44.76145935058594	1551.426391601563	-926.653503417969	50.04301071166994	1495.692993164063	-892.6533813476565	307.0544433593751	1572.529418945313	-817.8254394531252	311.2075500488282	1594.78857421875	-896.5330200195315	408.8123168945314	1597.407104492188	-816.5125732421877	-273.3488464355469	1604.139038085938	-548.6433105468751	-113.3182220458985	1519.932373046875	-444.9142150878907	-91.14914703369142	1557.912963867188	-469.1744995117189	-43.9118766784668	1529.216064453125	-447.4113159179689	22.41441726684571	1521.979736328125	-458.1179199218751	29.08334732055665	1463.34765625	-509.430633544922	nan	nan	nan	290.4419860839844	1561.322021484375	-457.884490966797	384.4530639648439	1579.1357421875	-522.4287109375001	-244.8785858154297	1088.681640625	-854.9063110351565	-240.8326873779297	1072.152099609375	-612.8827514648439	-429.1421203613282	1177.389526367188	-715.4007568359376	-438.6651916503907	1148.14013671875	-745.3956909179689	-433.9732971191407	1143.000854492188	-687.7103271484376	-272.9740295410157	816.9397583007815	-948.7954711914065	-234.9517669677735	740.0609130859376	-951.8852539062502	-189.9529113769532	742.2667236328126	-930.5932617187502	-258.8070678710938	685.2703857421876	-950.397644042969	-272.7588500976563	602.6176757812501	-941.3200683593752	-243.7745056152344	574.6069335937501	-815.090759277344	-359.4188842773438	500.8493041992189	-904.7187500000002	-415.2405090332032	551.1832275390626	-940.3109130859377	-408.1192932128907	508.8552856445314	-930.5679931640627	-480.5213012695314	478.4475097656251	-897.463806152344	-679.7962646484376	494.5546264648439	-866.859069824219	-647.8677368164064	440.7715454101564	-797.769226074219	-673.1384277343751	538.8635864257814	-793.6027832031252	-757.2691040039064	331.6292114257813	-817.1729736328127	-768.9774169921877	340.8514099121094	-862.4776000976565	-791.6113281250002	403.4294738769532	-891.064636230469	-362.2776794433594	869.731872558594	-562.3894042968751	-329.1195983886719	812.6823730468752	-562.2428588867189	-296.1525268554688	810.473327636719	-561.8303833007814	-358.6471252441407	737.2474975585939	-585.7784423828126	-357.8327636718751	554.9393920898439	-615.1748657226564	-320.3937377929688	551.5829467773439	-748.5560913085939	-304.4416198730469	357.1993103027344	-714.1898193359376	-344.7950439453126	274.0542602539063	-657.7645263671876	-307.4606933593751	270.3689880371094	-688.1224365234376	-316.3271789550782	228.8680877685547	-726.6794433593751	-375.8787231445313	116.8332748413086	-697.9542846679689	-343.1326599121094	144.7970275878907	-782.6815185546877	-439.2666625976564	101.8857727050782	-764.1513061523439	-228.886703491211	60.20040512084962	-775.0023193359377	-224.5580749511719	57.98075485229494	-722.6047973632814	-273.2017517089844	26.49126052856446	-671.9597167968751	
1123	5.61	-234.4323120117188	1805.339477539063	-619.9735717773439	-388.7854309082032	1759.3447265625	-702.6721191406251	-215.5751190185547	1814.248413085938	-763.0607910156251	-400.427459716797	1596.2333984375	-716.1539306640626	-412.1087036132814	1292.74267578125	-714.1002807617189	-244.8369598388672	1549.636474609375	-698.1383056640626	-256.2543334960938	1602.660766601563	-850.286560058594	-98.83399200439456	1542.971557617188	-955.8165283203127	-75.82936859130861	1580.267578125	-929.642272949219	-29.73199844360352	1545.377807617188	-945.3188476562502	44.7657814025879	1551.445678710938	-926.734069824219	49.85116195678712	1495.608276367188	-892.5701293945315	306.9625244140626	1572.58740234375	-817.7732543945315	311.2203063964844	1594.803344726563	-896.6074218750002	408.812957763672	1597.505004882813	-816.419860839844	-273.7046203613282	1604.106323242188	-548.7658691406251	-113.3821563720703	1519.976440429688	-444.8875122070314	-91.16480255126955	1558.019775390625	-469.1461486816407	-44.03099822998048	1529.22607421875	-447.3087463378907	22.27412986755371	1522.144165039063	-458.168182373047	28.98377990722657	1463.436401367188	-509.4473266601564	nan	nan	nan	290.0709533691407	1561.552734375	-457.8150939941407	383.8640441894532	1579.535888671875	-522.2788696289064	-245.0389862060547	1088.685424804688	-854.931823730469	-240.8601531982422	1072.145874023438	-612.9744262695314	-429.2069702148439	1177.416259765625	-715.4528198242189	-438.7449951171876	1148.095825195313	-745.4422607421876	-434.0436096191407	1142.884643554688	-687.7471923828126	-272.8000793457032	816.9068603515627	-948.7430419921877	-234.853012084961	740.0279541015626	-951.798522949219	-189.8908996582032	742.2614746093751	-930.5281372070315	-258.7402954101563	685.2443847656251	-950.3443603515627	-272.6641235351563	602.5800170898439	-941.2041015625002	-243.7568511962891	574.6287231445314	-814.9730224609377	-359.2268981933594	500.8497924804689	-904.7239990234377	-415.115936279297	551.1847534179689	-940.2734985351565	-408.0746459960939	508.8748779296876	-930.5319824218752	-480.2848510742189	478.4003295898439	-897.4644165039065	-679.7064819335939	494.5078430175782	-866.980651855469	-647.6751098632814	440.6245422363282	-797.9554443359377	-673.1566772460939	538.8370971679689	-793.6968994140627	-757.0885620117189	331.7112121582032	-817.1402587890627	-768.952575683594	340.7509765625001	-862.5705566406252	-790.9482421875002	402.8776855468751	-891.191833496094	-362.2621154785157	869.6902465820315	-562.5500488281251	-329.0777893066407	812.6702270507815	-562.3630371093751	-296.1326599121094	810.489685058594	-561.9641723632814	-358.6369628906251	737.1814575195314	-585.8606567382814	-357.7730407714844	554.8920288085939	-615.2612304687501	-320.4996337890626	551.5972900390626	-748.6713867187501	-304.3849487304688	357.1661987304688	-714.3875732421876	-344.7297973632813	274.0176086425782	-657.9971313476564	-307.4185791015626	270.3566894531251	-688.2538452148439	-316.3250732421876	228.8651428222657	-726.8798217773439	-375.8955993652344	116.883773803711	-698.0531005859376	-343.1896362304688	144.802719116211	-782.8858642578127	-439.2187500000001	101.9068374633789	-764.2120361328126	-228.8059692382813	60.16757202148439	-775.067565917969	-224.5565948486329	57.94983673095705	-722.6515502929689	-273.1913146972657	26.4798755645752	-671.9763183593751	
